# xmcd CD database file
#
# Track frame offsets:
#        150
#        16050
#        34437
#        47874
#        61250
#        75648
#        84480
#        97885
#        110989
#        125217
#        138451
#        148585
#        165596
#        178639
#
# Disc length: 2559 seconds
#
# Revision: 0
# Processed by: cddbd v1.5.2PL0 Copyright (c) Steve Scherf et al.
# Submitted via: CUERipper 2.1.6
#
DISCID=c109fd0e
DTITLE=Volupsije - Kocovina
DYEAR=2013
DGENRE=Country
TTITLE0=Kocovina
TTITLE1=Starej brouk
TTITLE2=Nanana
TTITLE3=Zlatý voči
TTITLE4=Ke tě mám
TTITLE5=Zrzavá
TTITLE6=Svítá
TTITLE7=Jednou přejdu pěšky kontinetnt
TTITLE8=Rio
TTITLE9=Přihořívá
TTITLE10=Smog
TTITLE11=Cowboy Casanova
TTITLE12=Pět kilo cibule
TTITLE13=Mám dost
EXTD=
EXTT0=
EXTT1=
EXTT2=
EXTT3=
EXTT4=
EXTT5=
EXTT6=
EXTT7=
EXTT8=
EXTT9=
EXTT10=
EXTT11=
EXTT12=
EXTT13=
PLAYORDER=
